<svg width="800" height="800" viewBox="0 0 800 800" fill="none" xmlns="http://www.w3.org/2000/svg">
<g clip-path="url(#clip0)">
<rect width="800" height="800" fill="url(#paint0_linear)"/>
<path d="M-895 381.99L-823.5 431.816C-752 480.894 -609 581.665 -466 551.247C-323 521.949 -180 361.463 -37 342.242C106 322.275 249 441.706 392 461.673C535 480.894 678 402.518 821 411.848C964 421.179 1107 521.949 1178.5 571.028L1250 620.853V800H1178.5C1107 800 964 800 821 800C678 800 535 800 392 800C249 800 106 800 -37 800C-180 800 -323 800 -466 800C-609 800 -752 800 -823.5 800H-895V381.99Z" fill="#C0C0C0" fill-opacity="0.1"/>
<path d="M1343 358.01L1271.5 308.184C1200 259.106 1057 158.335 914 188.753C771 218.051 628 378.537 485 397.758C342 417.725 199 298.294 56 278.327C-87 259.106 -230 337.482 -373 328.152C-516 318.821 -659 218.051 -730.5 168.972L-802 119.147V-60H-730.5C-659 -60 -516 -60 -373 -60C-230 -60 -87 -60 56 -60C199 -60 342 -60 485 -60C628 -60 771 -60 914 -60C1057 -60 1200 -60 1271.5 -60H1343V358.01Z" fill="#C0C0C0" fill-opacity="0.1"/>
<path d="M-986.39 -325.461L-942.534 -223.086C-898.174 -121.519 -811.219 84.4465 -635.57 148.139C-460.678 213.045 -197.092 135.678 -29.0126 211.513C139.571 286.538 213.909 512.742 355.494 631.077C497.583 748.602 705.656 760.283 854.432 867.082C1003.21 973.881 1090.16 1179.85 1134.52 1281.41L1178.38 1383.79L1057.26 1578.07L979.718 1529.73C902.176 1481.39 747.092 1384.71 592.008 1288.03C436.924 1191.35 281.84 1094.67 126.756 997.993C-28.3278 901.313 -183.412 804.633 -338.496 707.953C-493.58 611.273 -648.664 514.592 -803.748 417.912C-958.832 321.232 -1113.92 224.552 -1191.46 176.212L-1269 127.872L-986.39 -325.461Z" fill="#C0C0C0" fill-opacity="0.1"/>
<path d="M1627.65 1016.54L1583.79 914.16C1539.43 812.594 1452.48 606.628 1276.83 542.936C1101.94 478.029 838.351 555.397 670.272 479.562C501.689 404.536 427.35 178.332 285.766 59.9973C143.677 -57.5281 -64.3965 -69.2083 -213.172 -176.008C-361.948 -282.807 -448.903 -488.773 -493.263 -590.339L-537.119 -692.715L-416.001 -887L-338.459 -838.66C-260.917 -790.32 -105.833 -693.64 49.2514 -596.96C204.335 -500.279 359.42 -403.599 514.504 -306.919C669.588 -210.239 824.672 -113.559 979.756 -16.8786C1134.84 79.8016 1289.92 176.482 1445.01 273.162C1600.09 369.842 1755.18 466.522 1832.72 514.862L1910.26 563.202L1627.65 1016.54Z" fill="#C0C0C0" fill-opacity="0.1"/>
</g>
<defs>
<linearGradient id="paint0_linear" x1="800" y1="0" x2="9.53674e-05" y2="800" gradientUnits="userSpaceOnUse">
<stop stop-color="#FE4545"/>
<stop offset="1" stop-color="#D62C92"/>
</linearGradient>
<clipPath id="clip0">
<rect width="800" height="800" fill="white"/>
</clipPath>
</defs>
</svg>
