<svg width="1440" height="663" viewBox="0 0 1440 663" fill="none" xmlns="http://www.w3.org/2000/svg">
<g clip-path="url(#clip0)">
<path d="M-7.29992 72.7228L40.586 99.7304C88.4719 126.738 184.244 180.753 278.961 240.715C373.599 301.127 467.382 366.363 567.331 396.814C667.281 427.264 773.795 420.685 882.239 403.222C990.802 385.085 1101.29 356.064 1202.44 379.782C1303.58 403.5 1394.98 482.201 1440.81 520.767L1486.57 559.781L1543.86 236.612L1492.79 227.558C1441.73 218.505 1339.59 200.397 1237.45 182.29C1135.31 164.182 1033.17 146.075 931.037 127.967C828.899 109.86 726.762 91.7523 624.624 73.6448C522.486 55.5373 420.349 37.4299 318.211 19.3224C216.073 1.2149 113.935 -16.8926 62.8666 -25.9463L11.7977 -35.0001L-7.29992 72.7228Z" fill="#5D5FEF" fill-opacity="0.15"/>
<path d="M0 96L48 112C96 128 192 160 288 197.3C384 235 480 277 576 288C672 299 768 277 864 245.3C960 213 1056 171 1152 176C1248 181 1344 235 1392 261.3L1440 288V-3.05176e-05H1392C1344 -3.05176e-05 1248 -3.05176e-05 1152 -3.05176e-05C1056 -3.05176e-05 960 -3.05176e-05 864 -3.05176e-05C768 -3.05176e-05 672 -3.05176e-05 576 -3.05176e-05C480 -3.05176e-05 384 -3.05176e-05 288 -3.05176e-05C192 -3.05176e-05 96 -3.05176e-05 48 -3.05176e-05H0V96Z" fill="#5D5FEF"/>
<path d="M-268.295 -37.6055L-208.16 -18.6378C-148.026 0.329901 -27.7564 38.2653 92.4392 82.2402C212.629 126.671 332.76 176.001 453.32 190.007C573.881 204.012 694.9 180.413 816.054 145.761C937.215 110.424 1058.51 64.0348 1179.16 71.2029C1299.8 78.3711 1419.76 141.376 1479.76 172.081L1539.74 203.242L1543.74 -124.942L1483.38 -125.677C1423.03 -126.413 1302.31 -127.883 1181.6 -129.354C1060.89 -130.824 940.172 -132.295 819.459 -133.765C698.745 -135.236 578.032 -136.706 457.318 -138.177C336.605 -139.647 215.892 -141.118 95.1781 -142.588C-25.5354 -144.059 -146.249 -145.53 -206.606 -146.265L-266.962 -147L-268.295 -37.6055Z" fill="white" fill-opacity="0.05"/>
</g>
<defs>
<clipPath id="clip0">
<rect width="1440" height="663" fill="white"/>
</clipPath>
</defs>
</svg>
