<svg width="2091" height="640" viewBox="0 0 2091 640" fill="none" xmlns="http://www.w3.org/2000/svg">
<g clip-path="url(#clip0)">
<path d="M-276 205.99L-205.3 255.816C-134.6 304.894 6.80002 405.665 148.2 375.247C289.6 345.949 431 185.463 572.4 166.242C713.8 146.275 855.2 265.706 996.6 285.673C1138 304.894 1279.4 226.518 1420.8 235.848C1562.2 245.179 1703.6 345.949 1774.3 395.028L1845 444.853V624H1774.3C1703.6 624 1562.2 624 1420.8 624C1279.4 624 1138 624 996.6 624C855.2 624 713.8 624 572.4 624C431 624 289.6 624 148.2 624C6.80002 624 -134.6 624 -205.3 624H-276V205.99Z" fill="#5D5FEF" fill-opacity="0.3"/>
<path d="M-151 42.9903L-75.3 92.8156C0.400014 141.894 151.8 242.665 303.2 212.247C454.6 182.949 606 22.4631 757.4 3.24208C908.8 -16.7253 1060.2 102.706 1211.6 122.673C1363 141.894 1514.4 63.5176 1665.8 72.8482C1817.2 82.1787 1968.6 182.949 2044.3 232.028L2120 281.853V461H2044.3C1968.6 461 1817.2 461 1665.8 461C1514.4 461 1363 461 1211.6 461C1060.2 461 908.8 461 757.4 461C606 461 454.6 461 303.2 461C151.8 461 0.400014 461 -75.3 461H-151V42.9903Z" fill="#5D5FEF" fill-opacity="0.05"/>
<path d="M91 380.99L161.7 430.816C232.4 479.894 373.8 580.665 515.2 550.247C656.6 520.949 798 360.463 939.4 341.242C1080.8 321.275 1222.2 440.706 1363.6 460.673C1505 479.894 1646.4 401.518 1787.8 410.848C1929.2 420.179 2070.6 520.949 2141.3 570.028L2212 619.853V799H2141.3C2070.6 799 1929.2 799 1787.8 799C1646.4 799 1505 799 1363.6 799C1222.2 799 1080.8 799 939.4 799C798 799 656.6 799 515.2 799C373.8 799 232.4 799 161.7 799H91V380.99Z" fill="white" fill-opacity="0.05"/>
<path d="M-25 230.99L46.5 280.816C118 329.894 261 430.665 404 400.247C547 370.949 690 210.463 833 191.242C976 171.275 1119 290.706 1262 310.673C1405 329.894 1548 251.518 1691 260.848C1834 270.179 1977 370.949 2048.5 420.028L2120 469.853V649H2048.5C1977 649 1834 649 1691 649C1548 649 1405 649 1262 649C1119 649 976 649 833 649C690 649 547 649 404 649C261 649 118 649 46.5 649H-25V230.99Z" fill="#5D5FEF"/>
</g>
<defs>
<clipPath id="clip0">
<rect width="2091" height="640" fill="white"/>
</clipPath>
</defs>
</svg>
